<svg version="1.1" id="Layer_1" xmlns="http://www.w3.org/2000/svg" xmlns:xlink="http://www.w3.org/1999/xlink" x="0px" y="0px"
	 width="100%" viewBox="0 0 960 1280" enable-background="new 0 0 960 1280" xml:space="preserve">
<path fill="#FFFFFF" opacity="1.000000" stroke="none" 
	d="
M576.000000,1281.000000 
	C385.521179,1281.000000 195.542374,1280.988403 5.563612,1281.086548 
	C1.931492,1281.088501 0.896187,1280.460571 0.897194,1276.564575 
	C1.006658,852.945129 1.007965,429.325745 0.884159,5.706347 
	C0.882947,1.560506 1.828950,0.893997 5.792665,0.895420 
	C322.590637,1.009190 639.388611,1.008835 956.186584,0.898357 
	C960.106995,0.896990 961.119751,1.495562 961.118469,5.685604 
	C960.991821,429.138306 960.991272,852.591064 961.120117,1276.043823 
	C961.121460,1280.390625 960.072754,1281.108032 955.957092,1281.103882 
	C829.471497,1280.976685 702.985718,1281.000000 576.000000,1281.000000 
z"/>
<path fill="#318BA2" opacity="1.000000" stroke="none" 
	d="
M508.973114,283.959656 
	C481.619354,302.936188 456.190887,323.582367 435.141449,349.131744 
	C418.726135,369.056335 406.093079,390.940704 401.553741,416.783508 
	C400.295074,423.949280 399.500854,431.166718 400.374359,438.554810 
	C402.451355,438.476074 403.471039,437.001221 404.800110,436.133911 
	C437.138794,415.030334 471.246307,411.712646 505.764740,428.989838 
	C541.176208,446.714050 559.914490,476.565216 561.037842,516.277222 
	C562.508179,568.258362 524.508850,612.741943 472.674713,617.379150 
	C433.099243,620.919617 395.874725,613.171143 367.410309,581.718567 
	C352.172760,564.881348 343.663300,544.882446 340.109375,522.745117 
	C331.409576,468.554291 345.432892,419.841766 376.396484,375.376526 
	C402.051880,338.534119 434.998749,309.125336 471.167603,283.098572 
	C482.513184,274.934387 494.395844,267.519684 505.922302,259.601318 
	C508.541901,257.801727 509.997284,257.730011 511.663574,260.717194 
	C514.011230,264.925934 516.688477,268.967255 519.452881,272.920654 
	C520.996643,275.128418 520.525757,276.305786 518.379395,277.617859 
	C515.257996,279.525940 512.301941,281.704498 508.973114,283.959656 
z"/>
<path fill="#318BA2" opacity="1.000000" stroke="none" 
	d="
M550.695801,895.620605 
	C559.178467,876.325989 563.152344,857.018494 561.479004,843.556213 
	C559.889526,843.182251 559.153503,844.588806 558.129883,845.270630 
	C525.105164,867.270142 490.190308,870.633057 454.960846,852.519775 
	C420.368958,834.734253 402.584869,805.135132 400.680817,765.984314 
	C398.473419,720.596191 432.195435,669.734070 490.005402,664.592346 
	C527.424072,661.264221 563.230774,668.138977 591.270813,696.899780 
	C610.488159,716.611145 619.884644,740.675537 622.973999,767.548645 
	C629.789673,826.835693 609.724548,877.605164 573.186035,922.974609 
	C544.567688,958.509705 509.510986,986.801880 471.783661,1012.005432 
	C466.520599,1015.521484 461.062317,1018.761047 455.946777,1022.476074 
	C453.132751,1024.519775 451.824860,1023.852112 450.265350,1021.140991 
	C447.446198,1016.239929 441.635071,1011.210876 442.111206,1006.776245 
	C442.600708,1002.217529 450.383026,1000.040222 454.946777,996.789124 
	C482.727936,976.998657 509.051025,955.611633 530.222839,928.537781 
	C538.149231,918.401672 545.040405,907.617493 550.695801,895.620605 
z"/>
<path fill="#318BA2" opacity="1.000000" stroke="none" 
	d="
M864.604553,805.546509 
	C859.452515,860.129211 833.380981,903.889648 797.014465,942.538879 
	C767.346863,974.068726 732.813293,999.496582 696.489258,1022.696777 
	C693.669556,1024.497803 692.569336,1023.683838 691.155518,1021.279419 
	C688.878540,1017.407104 686.551208,1013.534912 683.880981,1009.932617 
	C681.802063,1007.128052 682.216492,1005.751587 685.140564,1003.837158 
	C702.155640,992.697083 718.474915,980.595703 733.799927,967.207642 
	C755.124207,948.578430 774.287781,928.095337 787.836975,902.930420 
	C797.629395,884.742981 803.094421,865.437012 802.688232,844.674683 
	C800.842957,843.839600 800.092346,845.369019 799.108398,846.025696 
	C738.241150,886.641907 658.149353,853.785522 644.639771,781.885193 
	C632.841309,719.091614 677.517883,672.426270 726.665466,665.306335 
	C755.476318,661.132507 784.072449,664.555176 809.799744,679.596375 
	C841.117676,697.906128 857.494141,726.424377 863.037720,761.727783 
	C865.298340,776.124573 865.227600,790.593567 864.604553,805.546509 
z"/>
<path fill="#318BA2" opacity="1.000000" stroke="none" 
	d="
M236.015900,279.012970 
	C246.026489,272.367188 255.797897,266.006042 265.399323,259.397949 
	C268.013092,257.599030 269.271545,257.993866 270.769714,260.605469 
	C273.087250,264.645294 275.473572,268.698822 278.321320,272.365509 
	C280.888458,275.670898 278.889893,276.690674 276.489044,278.291260 
	C251.898102,294.685638 228.480865,312.565735 207.922318,333.908966 
	C188.314346,354.265350 171.796875,376.647797 163.677872,404.252747 
	C160.484467,415.110474 158.646133,426.153717 159.445480,438.358582 
	C170.213501,430.559021 181.303284,425.163940 193.418320,421.821198 
	C251.136139,405.895630 310.525696,445.735413 318.191681,505.093811 
	C325.818329,564.147583 284.887054,609.017517 238.201828,616.166809 
	C193.705566,622.980957 152.747253,613.769470 122.425545,576.707703 
	C107.398598,558.340515 100.573486,536.551086 97.992905,513.280640 
	C91.434334,454.138458 111.795670,403.673431 148.236847,358.517029 
	C173.241959,327.531708 203.342682,302.100647 236.015900,279.012970 
z"/>
</svg>