<?xml version="1.0" standalone="no"?>
<!DOCTYPE svg PUBLIC "-//W3C//DTD SVG 20010904//EN"
 "http://www.w3.org/TR/2001/REC-SVG-20010904/DTD/svg10.dtd">
<svg version="1.0" xmlns="http://www.w3.org/2000/svg"
 width="500.000000pt" height="500.000000pt" viewBox="0 0 500.000000 500.000000"
 preserveAspectRatio="xMidYMid meet">

<g transform="translate(0.000000,500.000000) scale(0.100000,-0.100000)"
fill="#000000" stroke="none">
<path d="M3638 3342 c-98 -42 -174 -80 -170 -83 4 -4 24 -12 45 -19 20 -6 37
-15 37 -18 0 -4 -51 -59 -114 -121 l-114 -114 -57 7 c-31 3 -138 22 -238 41
-100 19 -182 33 -183 32 0 -1 -61 -155 -134 -342 -73 -187 -134 -342 -136
-344 -2 -2 -143 65 -314 150 -295 145 -312 152 -335 139 -13 -8 -112 -75 -219
-148 -163 -110 -196 -137 -196 -157 0 -28 24 -55 49 -55 9 0 99 56 201 125
101 69 190 125 197 125 7 0 102 -44 211 -99 300 -150 421 -203 447 -197 26 7
34 24 187 416 55 140 103 259 108 263 4 4 70 -3 146 -17 236 -44 281 -48 312
-32 15 8 81 69 146 135 l119 120 23 -47 c21 -46 22 -47 32 -22 21 51 130 340
129 340 -1 -1 -82 -35 -179 -78z"/>
<path d="M1510 1903 c-58 -10 -91 -27 -128 -67 -92 -100 -70 -255 46 -323 37
-22 58 -27 111 -27 61 0 90 9 140 43 12 8 12 12 2 25 -11 13 -17 12 -48 -10
-26 -17 -49 -24 -85 -24 -191 0 -256 242 -88 328 56 29 136 26 179 -6 24 -18
31 -19 40 -8 16 19 -28 53 -78 62 -20 3 -43 7 -51 8 -8 2 -26 1 -40 -1z"/>
<path d="M1925 1900 c-106 -16 -175 -97 -175 -205 0 -71 17 -111 67 -157 138
-124 362 -28 363 155 0 137 -112 228 -255 207z m122 -51 c120 -58 124 -239 8
-307 -84 -48 -208 -14 -251 70 -24 46 -16 144 15 187 48 67 148 89 228 50z"/>
<path d="M2913 1899 c-109 -19 -173 -96 -173 -209 0 -136 130 -234 267 -201
99 24 163 105 163 206 0 138 -114 228 -257 204z m128 -52 c63 -34 91 -85 87
-162 -3 -44 -10 -70 -27 -93 -67 -95 -225 -95 -292 0 -34 48 -38 140 -7 192
47 80 154 108 239 63z"/>
<path d="M960 1695 l0 -205 145 0 c122 0 145 2 145 15 0 13 -21 15 -125 15
l-125 0 0 80 0 80 110 0 c90 0 110 3 110 15 0 11 -21 15 -107 17 l-108 3 -3
78 -3 77 126 0 c104 0 125 2 125 15 0 13 -23 15 -145 15 l-145 0 0 -205z"/>
<path d="M2290 1695 c0 -197 1 -205 20 -205 19 0 20 8 22 165 l3 165 130 -165
c79 -100 137 -165 148 -165 16 0 17 16 17 205 0 197 -1 205 -20 205 -19 0 -20
-8 -22 -166 l-3 -167 -130 166 c-77 99 -137 166 -147 166 -17 1 -18 -15 -18
-204z"/>
<path d="M3280 1696 c0 -198 1 -206 20 -206 18 0 20 8 22 160 l3 161 79 -136
c43 -74 84 -135 90 -135 6 0 41 53 78 118 105 183 97 183 98 -5 0 -156 1 -163
20 -163 19 0 20 7 20 205 0 264 -2 264 -125 50 -49 -85 -91 -153 -93 -151 -2
2 -43 71 -91 152 -50 86 -94 150 -104 152 -16 3 -17 -13 -17 -202z"/>
<path d="M3790 1896 c0 -3 36 -64 80 -135 80 -131 80 -131 80 -201 0 -63 2
-70 20 -70 18 0 20 7 20 70 0 70 0 70 80 201 44 71 80 132 80 135 0 2 -8 4
-17 4 -12 0 -42 -39 -88 -114 -38 -63 -72 -113 -77 -110 -4 3 -37 54 -73 114
-48 79 -72 110 -86 110 -10 0 -19 -2 -19 -4z"/>
<path d="M1420 1185 c0 -43 4 -75 10 -75 6 0 10 32 10 75 0 43 -4 75 -10 75
-6 0 -10 -32 -10 -75z"/>
<path d="M1640 1185 c0 -43 4 -75 10 -75 6 0 10 15 10 33 0 41 12 60 36 55 14
-2 21 -15 25 -48 l6 -45 1 51 c2 57 -13 73 -49 54 -17 -10 -19 -7 -19 20 0 16
-4 30 -10 30 -6 0 -10 -32 -10 -75z"/>
<path d="M2350 1250 c0 -5 5 -10 11 -10 5 0 7 5 4 10 -3 6 -8 10 -11 10 -2 0
-4 -4 -4 -10z"/>
<path d="M2716 1230 c-8 -16 -10 -30 -5 -30 5 0 9 -20 9 -45 0 -25 5 -45 10
-45 6 0 10 20 10 45 0 29 4 45 13 45 8 0 8 3 -2 9 -8 5 -11 16 -8 26 4 9 11
13 17 10 5 -3 10 -1 10 4 0 24 -39 10 -54 -19z"/>
<path d="M3195 1250 c-3 -5 -1 -10 4 -10 6 0 11 5 11 10 0 6 -2 10 -4 10 -3 0
-8 -4 -11 -10z"/>
<path d="M1090 1180 c0 -40 4 -70 10 -70 6 0 10 14 10 30 0 26 4 30 28 31 l27
1 -25 7 c-17 5 -26 15 -28 33 -3 23 1 27 30 31 29 3 28 4 -9 5 l-43 2 0 -70z"/>
<path d="M1520 1240 c0 -5 9 -10 20 -10 18 0 20 -7 20 -60 0 -33 4 -60 10 -60
6 0 10 27 10 60 0 53 2 60 20 60 11 0 20 5 20 10 0 6 -22 10 -50 10 -27 0 -50
-4 -50 -10z"/>
<path d="M1940 1180 c0 -40 4 -70 10 -70 6 0 10 26 11 58 l1 57 20 -57 c11
-32 23 -58 28 -58 5 0 16 22 25 50 23 70 37 73 29 6 -5 -39 -3 -56 5 -56 7 0
11 24 11 70 0 89 -21 96 -46 15 -10 -30 -21 -52 -25 -49 -4 2 -15 27 -24 54
-25 75 -45 67 -45 -20z"/>
<path d="M2566 1228 c-34 -49 -5 -118 49 -118 54 0 83 69 49 118 -10 15 -25
22 -49 22 -24 0 -39 -7 -49 -22z m78 -4 c41 -40 -3 -121 -49 -90 -26 17 -31
62 -9 87 21 23 37 24 58 3z"/>
<path d="M2840 1180 l0 -70 34 0 c32 0 66 20 66 40 0 5 -7 15 -15 24 -9 9 -11
17 -5 21 16 10 12 42 -6 49 -9 3 -29 6 -45 6 l-29 0 0 -70z m68 31 c-5 -24
-48 -27 -48 -3 0 25 7 31 31 25 12 -3 19 -12 17 -22z m2 -46 c16 -19 4 -35
-26 -35 -19 0 -24 5 -24 25 0 29 29 35 50 10z"/>
<path d="M1208 1209 c-21 -12 -24 -69 -6 -87 15 -15 68 -16 68 -1 0 5 -5 7
-10 4 -16 -10 -50 5 -50 21 0 9 11 14 35 14 39 0 46 17 19 44 -18 18 -32 20
-56 5z m50 -26 c2 -8 -6 -13 -22 -13 -17 0 -26 5 -26 16 0 19 41 16 48 -3z"/>
<path d="M1320 1200 c-24 -24 -26 -53 -4 -74 18 -18 60 -21 70 -5 4 8 -1 9
-15 4 -22 -7 -51 9 -51 26 0 5 16 9 35 9 28 0 35 4 35 20 0 10 -9 24 -19 30
-26 13 -28 13 -51 -10z m50 -15 c0 -9 -9 -15 -25 -15 -24 0 -32 10 -18 23 12
13 43 7 43 -8z"/>
<path d="M1786 1207 c-21 -16 -24 -60 -6 -82 13 -16 70 -21 70 -6 0 5 -8 7
-19 4 -10 -2 -26 4 -36 14 -18 17 -18 18 18 21 29 3 37 8 37 22 0 11 -9 24
-19 30 -25 13 -24 13 -45 -3z m52 -24 c2 -8 -6 -13 -22 -13 -17 0 -26 5 -26
16 0 19 41 16 48 -3z"/>
<path d="M2140 1210 c-12 -8 -9 -10 13 -10 17 0 27 -5 27 -14 0 -9 -12 -16
-27 -18 -22 -2 -28 -8 -28 -28 0 -22 4 -25 38 -25 37 -1 37 0 37 40 0 56 -24
78 -60 55z m40 -65 c0 -9 -7 -18 -16 -22 -18 -7 -39 11 -30 26 11 17 46 13 46
-4z"/>
<path d="M2245 1206 c-13 -9 -16 -19 -10 -32 10 -23 7 -54 -6 -70 -10 -12 13
-44 31 -44 26 0 60 22 60 39 0 20 -18 31 -53 31 -25 0 -12 16 17 22 11 1 23
15 27 30 6 22 3 27 -15 32 -29 8 -30 8 -51 -8z m43 -24 c2 -14 -2 -22 -12 -22
-19 0 -29 17 -22 36 8 22 30 12 34 -14z m17 -81 c8 -14 -30 -32 -49 -25 -30
11 -16 34 20 34 13 0 25 -4 29 -9z"/>
<path d="M2430 1213 c-8 -3 -18 -11 -22 -17 -12 -17 -9 -61 4 -74 14 -14 58
-16 58 -2 0 5 -6 7 -12 5 -23 -8 -40 11 -36 41 2 21 9 30 26 32 12 2 20 8 17
13 -7 10 -13 10 -35 2z"/>
<path d="M3108 1213 c-28 -7 -21 -36 13 -55 34 -20 30 -42 -7 -35 -13 2 -24 0
-24 -5 0 -5 15 -8 33 -6 43 4 52 43 13 58 -34 13 -33 30 2 30 21 0 24 2 12 10
-8 5 -17 9 -20 9 -3 -1 -13 -3 -22 -6z"/>
<path d="M3273 1213 c-20 -4 -23 -11 -23 -54 0 -60 18 -65 22 -6 2 34 7 42 23
42 16 0 21 -8 23 -42 4 -57 22 -55 22 2 0 34 -5 47 -19 55 -11 5 -21 9 -23 9
-2 -1 -13 -4 -25 -6z"/>
<path d="M3386 1204 c-19 -18 -21 -65 -4 -82 14 -14 68 -16 68 -2 0 5 -7 7
-15 4 -16 -6 -45 12 -45 27 0 5 16 9 35 9 24 0 35 5 35 14 0 18 -27 46 -45 46
-7 0 -21 -7 -29 -16z m54 -19 c0 -9 -9 -15 -25 -15 -24 0 -32 10 -18 23 12 13
43 7 43 -8z"/>
<path d="M3494 1205 c-19 -15 -19 -15 4 -34 12 -11 28 -21 34 -23 23 -8 -4
-30 -29 -23 -16 4 -22 2 -18 -5 9 -15 51 -12 65 5 15 18 1 40 -31 50 -28 9
-23 25 7 25 14 0 23 4 19 10 -9 14 -28 12 -51 -5z"/>
<path d="M3594 1205 c-18 -14 -18 -16 15 -43 35 -30 30 -49 -9 -37 -12 4 -20
2 -20 -5 0 -7 13 -10 33 -8 43 4 52 43 13 58 -34 13 -33 30 2 30 21 0 24 2 12
10 -20 13 -23 13 -46 -5z"/>
<path d="M2350 1160 c0 -27 5 -50 10 -50 6 0 10 23 10 50 0 28 -4 50 -10 50
-5 0 -10 -22 -10 -50z"/>
<path d="M2972 1163 l3 -48 43 -1 42 -2 0 49 c0 27 -4 49 -10 49 -5 0 -10 -15
-10 -34 0 -35 -21 -63 -40 -51 -5 3 -10 24 -10 46 0 21 -5 39 -11 39 -6 0 -9
-19 -7 -47z"/>
<path d="M3190 1160 c0 -27 5 -50 10 -50 6 0 10 23 10 50 0 28 -4 50 -10 50
-5 0 -10 -22 -10 -50z"/>
</g>
</svg>
